<mxfile host="app.diagrams.net" agent="Mozilla/5.0 (Windows NT 10.0; Win64; x64) AppleWebKit/537.36 (KHTML, like Gecko) Chrome/130.0.0.0 Safari/537.36 Edg/130.0.0.0" version="24.8.3">
  <diagram name="Page-1" id="Ip_pfHvVdFOnP5QHlF9X">
    <mxGraphModel grid="1" page="1" gridSize="10" guides="1" tooltips="1" connect="1" arrows="1" fold="1" pageScale="1" pageWidth="850" pageHeight="1100" math="0" shadow="0">
      <root>
        <mxCell id="0" />
        <mxCell id="1" parent="0" />
        <mxCell id="hK9BllN227rQkjX-SPo6-1" value="Printer manager" style="swimlane;whiteSpace=wrap" vertex="1" parent="1">
          <mxGeometry x="130" y="290" width="280" height="1022" as="geometry" />
        </mxCell>
        <mxCell id="hK9BllN227rQkjX-SPo6-2" value="" style="ellipse;shape=startState;fillColor=#000000;strokeColor=#ff0000;" vertex="1" parent="hK9BllN227rQkjX-SPo6-1">
          <mxGeometry x="100" y="40" width="30" height="30" as="geometry" />
        </mxCell>
        <mxCell id="hK9BllN227rQkjX-SPo6-3" value="" style="edgeStyle=elbowEdgeStyle;elbow=horizontal;verticalAlign=bottom;endArrow=open;endSize=8;strokeColor=#FF0000;endFill=1;rounded=0" edge="1" parent="hK9BllN227rQkjX-SPo6-1" source="hK9BllN227rQkjX-SPo6-2" target="hK9BllN227rQkjX-SPo6-4">
          <mxGeometry x="100" y="40" as="geometry">
            <mxPoint x="115.5" y="110" as="targetPoint" />
          </mxGeometry>
        </mxCell>
        <mxCell id="hK9BllN227rQkjX-SPo6-4" value="Log in to the&amp;nbsp;&lt;div&gt;SPSO&amp;nbsp;&lt;span style=&quot;background-color: initial;&quot;&gt;service&lt;/span&gt;&lt;/div&gt;" style="rounded=1;whiteSpace=wrap;html=1;" vertex="1" parent="hK9BllN227rQkjX-SPo6-1">
          <mxGeometry x="55" y="102" width="120" height="60" as="geometry" />
        </mxCell>
        <mxCell id="hK9BllN227rQkjX-SPo6-5" value="Choose logs type&lt;div&gt;and printers&lt;/div&gt;" style="rounded=1;whiteSpace=wrap;html=1;" vertex="1" parent="hK9BllN227rQkjX-SPo6-1">
          <mxGeometry x="65.5" y="472" width="120" height="60" as="geometry" />
        </mxCell>
        <mxCell id="hK9BllN227rQkjX-SPo6-7" value="[unsuccessful]" style="edgeStyle=elbowEdgeStyle;elbow=horizontal;align=left;verticalAlign=top;endArrow=open;endSize=8;strokeColor=#FF0000;endFill=1;rounded=0;" edge="1" parent="hK9BllN227rQkjX-SPo6-1">
          <mxGeometry x="0.2027" y="-20" relative="1" as="geometry">
            <mxPoint x="55.000000000000114" y="132" as="targetPoint" />
            <mxPoint x="373.75" y="271.9999999999999" as="sourcePoint" />
            <Array as="points">
              <mxPoint x="25.5" y="202" />
            </Array>
            <mxPoint x="1" as="offset" />
          </mxGeometry>
        </mxCell>
        <mxCell id="hK9BllN227rQkjX-SPo6-8" value="Receive requested&lt;div&gt;logs&lt;/div&gt;" style="rounded=1;whiteSpace=wrap;html=1;" vertex="1" parent="hK9BllN227rQkjX-SPo6-1">
          <mxGeometry x="55" y="872" width="120" height="60" as="geometry" />
        </mxCell>
        <mxCell id="hK9BllN227rQkjX-SPo6-9" value="" style="ellipse;shape=endState;fillColor=#000000;strokeColor=#ff0000" vertex="1" parent="hK9BllN227rQkjX-SPo6-1">
          <mxGeometry x="100" y="962" width="30" height="30" as="geometry" />
        </mxCell>
        <mxCell id="hK9BllN227rQkjX-SPo6-10" value="" style="endArrow=open;strokeColor=#FF0000;endFill=1;rounded=0" edge="1" parent="hK9BllN227rQkjX-SPo6-1" source="hK9BllN227rQkjX-SPo6-8" target="hK9BllN227rQkjX-SPo6-9">
          <mxGeometry relative="1" as="geometry">
            <mxPoint x="115.5" y="902" as="sourcePoint" />
          </mxGeometry>
        </mxCell>
        <mxCell id="hK9BllN227rQkjX-SPo6-52" value="Get printer logs" style="rounded=1;whiteSpace=wrap;html=1;" vertex="1" parent="hK9BllN227rQkjX-SPo6-1">
          <mxGeometry x="65.5" y="322" width="120" height="60" as="geometry" />
        </mxCell>
        <mxCell id="hK9BllN227rQkjX-SPo6-12" value="SPSO Service" style="swimlane;whiteSpace=wrap" vertex="1" parent="1">
          <mxGeometry x="410.5" y="290" width="280" height="1022" as="geometry" />
        </mxCell>
        <mxCell id="hK9BllN227rQkjX-SPo6-13" value="" style="rhombus;fillColor=#ffffc0;strokeColor=#ff0000;" vertex="1" parent="hK9BllN227rQkjX-SPo6-12">
          <mxGeometry x="93.25" y="252" width="44.5" height="40" as="geometry" />
        </mxCell>
        <mxCell id="hK9BllN227rQkjX-SPo6-14" value="" style="endArrow=open;strokeColor=#FF0000;endFill=1;rounded=0" edge="1" parent="hK9BllN227rQkjX-SPo6-12" source="hK9BllN227rQkjX-SPo6-15" target="hK9BllN227rQkjX-SPo6-13">
          <mxGeometry relative="1" as="geometry">
            <mxPoint x="130" y="245" as="sourcePoint" />
          </mxGeometry>
        </mxCell>
        <mxCell id="hK9BllN227rQkjX-SPo6-15" value="Authenticate&lt;div&gt;user&lt;/div&gt;" style="rounded=1;whiteSpace=wrap;html=1;" vertex="1" parent="hK9BllN227rQkjX-SPo6-12">
          <mxGeometry x="55.5" y="152" width="120" height="60" as="geometry" />
        </mxCell>
        <mxCell id="hK9BllN227rQkjX-SPo6-16" style="edgeStyle=none;curved=1;rounded=0;orthogonalLoop=1;jettySize=auto;html=1;exitX=1;exitY=0.5;exitDx=0;exitDy=0;fontSize=12;startSize=8;endSize=8;" edge="1" parent="hK9BllN227rQkjX-SPo6-12" source="hK9BllN227rQkjX-SPo6-13" target="hK9BllN227rQkjX-SPo6-13">
          <mxGeometry relative="1" as="geometry" />
        </mxCell>
        <mxCell id="hK9BllN227rQkjX-SPo6-17" style="edgeStyle=none;curved=1;rounded=0;orthogonalLoop=1;jettySize=auto;html=1;exitX=0;exitY=0.5;exitDx=0;exitDy=0;fontSize=12;startSize=8;endSize=8;" edge="1" parent="hK9BllN227rQkjX-SPo6-12" source="hK9BllN227rQkjX-SPo6-13" target="hK9BllN227rQkjX-SPo6-13">
          <mxGeometry relative="1" as="geometry" />
        </mxCell>
        <mxCell id="hK9BllN227rQkjX-SPo6-18" value="Find printers logs" style="rounded=1;whiteSpace=wrap;html=1;" vertex="1" parent="hK9BllN227rQkjX-SPo6-12">
          <mxGeometry x="55.5" y="522" width="120" height="60" as="geometry" />
        </mxCell>
        <mxCell id="hK9BllN227rQkjX-SPo6-19" value="" style="rhombus;fillColor=#ffffc0;strokeColor=#ff0000;" vertex="1" parent="hK9BllN227rQkjX-SPo6-12">
          <mxGeometry x="93.25" y="622" width="44.5" height="40" as="geometry" />
        </mxCell>
        <mxCell id="hK9BllN227rQkjX-SPo6-20" value="" style="edgeStyle=elbowEdgeStyle;elbow=horizontal;entryX=0.5;entryY=0;strokeColor=#FF0000;endArrow=open;endFill=1;rounded=0;exitX=0.5;exitY=1;exitDx=0;exitDy=0;entryDx=0;entryDy=0;" edge="1" parent="hK9BllN227rQkjX-SPo6-12" source="hK9BllN227rQkjX-SPo6-18" target="hK9BllN227rQkjX-SPo6-19">
          <mxGeometry width="100" height="100" relative="1" as="geometry">
            <mxPoint x="205" y="385" as="sourcePoint" />
            <mxPoint x="255" y="428" as="targetPoint" />
            <Array as="points" />
          </mxGeometry>
        </mxCell>
        <mxCell id="hK9BllN227rQkjX-SPo6-23" value="Send logs" style="rounded=1;whiteSpace=wrap;html=1;" vertex="1" parent="hK9BllN227rQkjX-SPo6-12">
          <mxGeometry x="55.5" y="802" width="120" height="60" as="geometry" />
        </mxCell>
        <mxCell id="hK9BllN227rQkjX-SPo6-34" value="[no logs avaiable/&#xa;network error]" style="endArrow=open;strokeColor=#FF0000;endFill=1;rounded=0;" edge="1" parent="hK9BllN227rQkjX-SPo6-12" source="hK9BllN227rQkjX-SPo6-19" target="hK9BllN227rQkjX-SPo6-24">
          <mxGeometry x="0.2872" relative="1" as="geometry">
            <mxPoint x="115" y="612" as="sourcePoint" />
            <mxPoint x="215" y="971.9999999999998" as="targetPoint" />
            <Array as="points" />
            <mxPoint as="offset" />
          </mxGeometry>
        </mxCell>
        <mxCell id="hK9BllN227rQkjX-SPo6-35" value="[successful]" style="endArrow=open;strokeColor=#FF0000;endFill=1;rounded=0;" edge="1" parent="hK9BllN227rQkjX-SPo6-12" source="hK9BllN227rQkjX-SPo6-19" target="hK9BllN227rQkjX-SPo6-23">
          <mxGeometry relative="1" as="geometry">
            <mxPoint x="225" y="742" as="sourcePoint" />
            <mxPoint x="420.5" y="732" as="targetPoint" />
            <Array as="points">
              <mxPoint x="225" y="642" />
              <mxPoint x="225" y="832" />
            </Array>
          </mxGeometry>
        </mxCell>
        <mxCell id="hK9BllN227rQkjX-SPo6-45" value="Show list of available&lt;div&gt;logs&lt;/div&gt;" style="rounded=1;whiteSpace=wrap;html=1;" vertex="1" parent="hK9BllN227rQkjX-SPo6-12">
          <mxGeometry x="55.5" y="402" width="120" height="60" as="geometry" />
        </mxCell>
        <mxCell id="hK9BllN227rQkjX-SPo6-24" value="Show error Message" style="rounded=1;whiteSpace=wrap;html=1;" vertex="1" parent="hK9BllN227rQkjX-SPo6-12">
          <mxGeometry x="55.5" y="712" width="120" height="60" as="geometry" />
        </mxCell>
        <mxCell id="hK9BllN227rQkjX-SPo6-29" value="" style="endArrow=open;strokeColor=#FF0000;endFill=1;rounded=0;entryX=0.5;entryY=0;entryDx=0;entryDy=0;" edge="1" parent="1" source="hK9BllN227rQkjX-SPo6-4" target="hK9BllN227rQkjX-SPo6-15">
          <mxGeometry relative="1" as="geometry">
            <mxPoint x="245" y="450" as="sourcePoint" />
            <mxPoint x="245" y="622" as="targetPoint" />
            <Array as="points">
              <mxPoint x="525.5" y="422" />
            </Array>
          </mxGeometry>
        </mxCell>
        <mxCell id="hK9BllN227rQkjX-SPo6-36" value="" style="endArrow=open;strokeColor=#FF0000;endFill=1;rounded=0;exitX=0;exitY=0.5;exitDx=0;exitDy=0;entryX=0.5;entryY=0;entryDx=0;entryDy=0;" edge="1" parent="1" source="hK9BllN227rQkjX-SPo6-23" target="hK9BllN227rQkjX-SPo6-8">
          <mxGeometry relative="1" as="geometry">
            <mxPoint x="255.5" y="1202" as="sourcePoint" />
            <mxPoint x="255" y="1262" as="targetPoint" />
            <Array as="points">
              <mxPoint x="245.5" y="1122" />
            </Array>
          </mxGeometry>
        </mxCell>
        <mxCell id="hK9BllN227rQkjX-SPo6-6" value="" style="edgeStyle=elbowEdgeStyle;elbow=horizontal;strokeColor=#FF0000;endArrow=open;endFill=1;rounded=0;exitX=0;exitY=0.5;exitDx=0;exitDy=0;entryX=0;entryY=0.5;entryDx=0;entryDy=0;" edge="1" parent="1" source="hK9BllN227rQkjX-SPo6-24" target="hK9BllN227rQkjX-SPo6-5">
          <mxGeometry x="-0.8739" width="100" height="100" relative="1" as="geometry">
            <mxPoint x="503.25" y="802" as="sourcePoint" />
            <mxPoint x="194.5000000000001" y="422" as="targetPoint" />
            <Array as="points">
              <mxPoint x="156" y="722" />
            </Array>
            <mxPoint as="offset" />
          </mxGeometry>
        </mxCell>
        <mxCell id="hK9BllN227rQkjX-SPo6-51" value="&lt;font style=&quot;font-size: 48px;&quot;&gt;VIEW PRINTERS LOGS&lt;/font&gt;" style="text;html=1;align=center;verticalAlign=middle;whiteSpace=wrap;rounded=0;fontSize=16;" vertex="1" parent="1">
          <mxGeometry x="40.5" y="30" width="740" height="30" as="geometry" />
        </mxCell>
        <mxCell id="hK9BllN227rQkjX-SPo6-31" value="" style="edgeStyle=elbowEdgeStyle;elbow=horizontal;strokeColor=#FF0000;endArrow=open;endFill=1;rounded=0;" edge="1" parent="1" source="hK9BllN227rQkjX-SPo6-5" target="hK9BllN227rQkjX-SPo6-18">
          <mxGeometry width="100" height="100" relative="1" as="geometry">
            <mxPoint x="245.5" y="812" as="sourcePoint" />
            <mxPoint x="466" y="842" as="targetPoint" />
            <Array as="points">
              <mxPoint x="245.5" y="842" />
            </Array>
          </mxGeometry>
        </mxCell>
        <mxCell id="hK9BllN227rQkjX-SPo6-30" value="[successful]" style="edgeStyle=elbowEdgeStyle;elbow=horizontal;strokeColor=#FF0000;endArrow=open;endFill=1;rounded=0;" edge="1" parent="1" source="hK9BllN227rQkjX-SPo6-13" target="hK9BllN227rQkjX-SPo6-52">
          <mxGeometry width="100" height="100" relative="1" as="geometry">
            <mxPoint x="525.5" y="612.0005617977529" as="sourcePoint" />
            <mxPoint x="315.5" y="642.45" as="targetPoint" />
            <Array as="points">
              <mxPoint x="525.5" y="642.45" />
            </Array>
          </mxGeometry>
        </mxCell>
        <mxCell id="hK9BllN227rQkjX-SPo6-53" value="" style="edgeStyle=elbowEdgeStyle;elbow=horizontal;verticalAlign=bottom;endArrow=open;endSize=8;strokeColor=#FF0000;endFill=1;rounded=0" edge="1" parent="1" source="hK9BllN227rQkjX-SPo6-52" target="hK9BllN227rQkjX-SPo6-45">
          <mxGeometry x="100" y="40" as="geometry">
            <mxPoint x="255" y="402" as="targetPoint" />
            <mxPoint x="255" y="370" as="sourcePoint" />
            <Array as="points">
              <mxPoint x="255.5" y="682" />
            </Array>
          </mxGeometry>
        </mxCell>
        <mxCell id="hK9BllN227rQkjX-SPo6-54" value="" style="edgeStyle=elbowEdgeStyle;elbow=horizontal;verticalAlign=bottom;endArrow=open;endSize=8;strokeColor=#FF0000;endFill=1;rounded=0" edge="1" parent="1" source="hK9BllN227rQkjX-SPo6-45" target="hK9BllN227rQkjX-SPo6-5">
          <mxGeometry x="100" y="40" as="geometry">
            <mxPoint x="476.5" y="732" as="targetPoint" />
            <mxPoint x="265.5" y="682" as="sourcePoint" />
            <Array as="points">
              <mxPoint x="526.5" y="792" />
            </Array>
          </mxGeometry>
        </mxCell>
        <mxCell id="FFt9oyC2_za5M7_4qHPm-1" value="&lt;span style=&quot;color: rgb(0, 0, 0); font-family: Helvetica; font-size: 16px; font-style: normal; font-variant-ligatures: normal; font-variant-caps: normal; font-weight: 400; letter-spacing: normal; orphans: 2; text-align: justify; text-indent: 0px; text-transform: none; widows: 2; word-spacing: 0px; -webkit-text-stroke-width: 0px; white-space: normal; background-color: rgb(251, 251, 251); text-decoration-thickness: initial; text-decoration-style: initial; text-decoration-color: initial; display: inline !important; float: none;&quot;&gt;The&lt;span&gt;&amp;nbsp;&lt;/span&gt;&lt;/span&gt;&lt;strong style=&quot;forced-color-adjust: none; color: rgb(0, 0, 0); font-family: Helvetica; font-size: 16px; font-style: normal; font-variant-ligatures: normal; font-variant-caps: normal; letter-spacing: normal; orphans: 2; text-align: justify; text-indent: 0px; text-transform: none; widows: 2; word-spacing: 0px; -webkit-text-stroke-width: 0px; white-space: normal; background-color: rgb(251, 251, 251); text-decoration-thickness: initial; text-decoration-style: initial; text-decoration-color: initial;&quot;&gt;View Printer Logs&lt;/strong&gt;&lt;span style=&quot;color: rgb(0, 0, 0); font-family: Helvetica; font-size: 16px; font-style: normal; font-variant-ligatures: normal; font-variant-caps: normal; font-weight: 400; letter-spacing: normal; orphans: 2; text-align: justify; text-indent: 0px; text-transform: none; widows: 2; word-spacing: 0px; -webkit-text-stroke-width: 0px; white-space: normal; background-color: rgb(251, 251, 251); text-decoration-thickness: initial; text-decoration-style: initial; text-decoration-color: initial; display: inline !important; float: none;&quot;&gt;&lt;span&gt;&amp;nbsp;&lt;/span&gt;use case describes the process by which the user (SPSO) can view logs related to printer activity. Upon selecting the option to view logs, the system presents a list of available logs, such as error or maintenance logs. The user selects the desired logs, and the system retrieves and displays them accordingly. If no logs are available for the selected printer, the system notifies the user with a message. In case of a system error (e.g., database or connectivity issues), the system is unable to retrieve the logs and displays an error message to the user.&lt;/span&gt;" style="text;whiteSpace=wrap;html=1;" vertex="1" parent="1">
          <mxGeometry x="130.5" y="90" width="560" height="180" as="geometry" />
        </mxCell>
      </root>
    </mxGraphModel>
  </diagram>
</mxfile>
